<svg xmlns="http://www.w3.org/2000/svg" viewBox="0 0 64 64" width="64" height="64">
  <defs>
    <linearGradient id="g" x1="0" y1="0" x2="1" y2="1">
      <stop offset="0" stop-color="#4f9cf9"/>
      <stop offset="1" stop-color="#7c5cff"/>
    </linearGradient>
  </defs>
  <rect x="0" y="0" width="64" height="64" rx="15" fill="url(#g)"/>
  <!-- drift / rectified flow: streamlines start wavy (left), straighten (right) -->
  <g fill="none" stroke="#ffffff" stroke-width="3.4" stroke-linecap="round">
    <path d="M12 21 C20 14, 26 28, 34 21 C40 16, 46 21, 52 21" opacity="0.95"/>
    <path d="M12 32 C20 25, 26 39, 34 32 C40 28, 46 32, 52 32"/>
    <path d="M12 43 C20 36, 26 50, 34 43 C40 39, 46 43, 52 43" opacity="0.95"/>
  </g>
  <!-- flow direction dots (drifting right, increasingly aligned) -->
  <g fill="#ffffff">
    <circle cx="52" cy="21" r="2.6"/>
    <circle cx="52" cy="32" r="2.6"/>
    <circle cx="52" cy="43" r="2.6"/>
  </g>
</svg>
